<?xml version="1.0" encoding="utf-8"?>
<svg xmlns="http://www.w3.org/2000/svg" xmlns:xlink="http://www.w3.org/1999/xlink" version="1.1" style="width:0;height:0;position:absolute;overflow:hidden;">
  <defs>
<symbol viewBox="0 0 1024 998" aria-labelledby="dpsi-ant-github-title" id="si-ant-github"><title id="dpsi-ant-github-title">icon github</title><path d="M0 512q0 166 95.5 298.5T343 996q6 1 10 1t6.5-1.5 4-3 2-5 .5-4.5V882q-37 4-66-.5t-45.5-14-29-23.5-17-25.5-9-24T194 780q-9-15-27-27.5t-27-20-2-14.5q50-26 113 66 34 51 119 30 10-41 40-70-116-21-172-86t-56-158q0-87 55-151-22-65 6-137 29-2 65 11.5t50.5 23T384 264q57-16 128.5-16T642 264q13-9 29-19t49-21.5 61-9.5q27 71 6 135 56 64 56 152 0 92-56.5 157.5T615 744q43 43 43 104v129q0 1 1 3 0 6 .5 9t4.5 6 11 3q154-52 251.5-185.5T1024 512q0-104-40.5-199t-109-163.5T711 40.5 512 0 313 40.5t-163.5 109T40.5 313 0 512z"/></symbol>
<symbol viewBox="0 0 22.436996459960938 21.97500228881836" aria-labelledby="ctsi-dev-github_badge-title" id="si-dev-github_badge"><title id="ctsi-dev-github_badge-title">icon github_badge</title><path d="M11.219 0C5.023 0 0 5.023 0 11.219c0 4.957 3.214 9.162 7.673 10.645.561.103.766-.244.766-.54 0-.267-.01-1.152-.016-2.088-3.12.678-3.779-1.323-3.779-1.323-.511-1.296-1.246-1.641-1.246-1.641-1.02-.696.077-.682.077-.682 1.126.078 1.72 1.156 1.72 1.156 1.001 1.715 2.627 1.219 3.265.931.102-.723.392-1.219.712-1.498-2.49-.283-5.11-1.246-5.11-5.545 0-1.226.438-2.225 1.154-3.011-.114-.285-.501-1.426.111-2.97 0 0 .941-.301 3.085 1.15.894-.25 1.854-.373 2.807-.377.953.004 1.913.129 2.809.379 2.14-1.453 3.083-1.15 3.083-1.15.613 1.545.227 2.685.112 2.969.719.785 1.153 1.785 1.153 3.011 0 4.31-2.624 5.259-5.123 5.537.404.348.761 1.03.761 2.076 0 1.5-.015 2.709-.015 3.079 0 .299.204.648.772.538 4.455-1.486 7.666-5.69 7.666-10.645 0-6.195-5.023-11.219-11.219-11.219z"/></symbol>
  </defs>
</svg>
